HIERARCHY
ROOT hip
{
	OFFSET 0.000000 0.000000 0.000000 
	CHANNELS 6 Xposition Yposition Zposition Xrotation Zrotation Yrotation
	JOINT abdomen
	{
		OFFSET 0.000000 3.402643 0.000000 
		CHANNELS 3 Xrotation Zrotation Yrotation
		JOINT chest
		{
			OFFSET 0.000000 8.438565 -0.680529 
			CHANNELS 3 Xrotation Zrotation Yrotation
			JOINT neck
			{
				OFFSET 0.000000 10.207942 -0.272212 
				CHANNELS 3 Xrotation Zrotation Yrotation
				JOINT head
				{
					OFFSET 0.000000 3.130431 0.000000 
					CHANNELS 3 Xrotation Zrotation Yrotation
					End Site
					{
						OFFSET 0.000000 3.130435 0.000000 
					}
				}
			}
			JOINT lCollar
			{
				OFFSET 3.470700 6.669187 -0.816635 
				CHANNELS 3 Yrotation Zrotation Xrotation
				JOINT lShldr
				{
					OFFSET 3.198488 0.000000 0.000000 
					CHANNELS 3 Zrotation Yrotation Xrotation
					JOINT lForeArm
					{
						OFFSET 10.139888 0.000000 0.000000 
						CHANNELS 3 Yrotation Zrotation Xrotation
						JOINT lHand
						{
							OFFSET 8.370511 0.000000 0.000000 
							CHANNELS 3 Zrotation Yrotation Xrotation
							End Site
							{
								OFFSET 4.083176 0.000000 0.000000 
							}
						}
					}
				}
			}
			JOINT rCollar
			{
				OFFSET -3.470700 6.669187 -0.816635 
				CHANNELS 3 Yrotation Zrotation Xrotation
				JOINT rShldr
				{
					OFFSET -3.198488 0.000000 0.000000 
					CHANNELS 3 Zrotation Yrotation Xrotation
					JOINT rForeArm
					{
						OFFSET -10.139888 0.000000 0.000000 
						CHANNELS 3 Yrotation Zrotation Xrotation
						JOINT rHand
						{
							OFFSET -8.370511 0.000000 0.000000 
							CHANNELS 3 Zrotation Yrotation Xrotation
							End Site
							{
								OFFSET -4.083176 0.000000 0.000000 
							}
						}
					}
				}
			}
		}
	}
	JOINT lThigh
	{
		OFFSET 5.308129 -1.633274 1.361059 
		CHANNELS 3 Xrotation Zrotation Yrotation
		JOINT lShin
		{
			OFFSET -2.041588 -20.007561 0.000000 
			CHANNELS 3 Xrotation Zrotation Yrotation
			JOINT lFoot
			{
				OFFSET 0.000000 -19.190928 -1.224953 
				CHANNELS 3 Xrotation Yrotation Zrotation
				End Site
				{
					OFFSET 0.000000 -2.449906 4.627600 
				}
			}
		}
	}
	JOINT rThigh
	{
		OFFSET -5.308129 -1.633274 1.361059 
		CHANNELS 3 Xrotation Zrotation Yrotation
		JOINT rShin
		{
			OFFSET 2.041588 -20.007561 0.000000 
			CHANNELS 3 Xrotation Zrotation Yrotation
			JOINT rFoot
			{
				OFFSET 0.000000 -19.190928 -1.224953 
				CHANNELS 3 Xrotation Yrotation Zrotation
				End Site
				{
					OFFSET 0.000000 -2.449906 4.627600 
				}
			}
		}
	}
}
MOTION
Frames: 6
Frame Time: 0.033333
-0.537585 53.022663 0.617957 -8.876953 -6.972656 -37.277142 32.471916 -11.633243 -3.887146 -4.707030 1.113281 12.812690 51.553619 8.070152 2.616707 -29.697266 2.500000 -5.595703 2.000000 -2.000000 0.000000 -58.134766 -19.101561 -21.494143 -50.310799 -1.399605 -1.909736 -15.643125 54.711571 -13.824900 -2.000000 2.000000 0.000000 51.884766 -10.996094 -23.898348 49.588024 1.342075 -2.265590 16.055977 -51.602497 -18.277010 2.264678 9.582636 -6.959458 6.188576 -5.876233 -0.992126 10.177667 16.949596 -7.986396 12.883231 -2.597370 -11.423143 18.204941 5.513203 1.807757 0.727523 -8.170619 4.454370 
-1.045954 52.991112 1.232279 -8.339844 -6.796875 -37.364437 32.225613 -12.079831 -4.561846 -5.048829 1.767578 14.863282 51.553619 8.070152 2.616707 -29.736328 2.167969 -5.566407 2.000000 -2.000000 0.000000 -57.841797 -21.376951 -21.181641 -50.832863 -1.409275 -2.075648 -15.037531 52.844337 -13.526399 -2.000000 2.000000 0.000000 51.533199 -13.281250 -25.205078 49.236725 1.342642 -2.275335 15.691062 -52.221039 -17.861561 2.265707 9.587392 -6.779743 6.699035 -5.702086 -1.001209 9.562284 16.903042 -8.406034 14.018468 -2.119588 -11.360647 16.272936 5.570788 1.781882 -0.119398 -8.267612 4.264107 
-1.390994 52.933102 1.790441 -7.802734 -6.796875 -37.423031 32.125725 -12.289454 -4.895156 -5.214843 2.255860 16.308979 51.553619 8.070152 2.616707 -29.912113 2.187500 -6.083984 2.000000 -2.000000 0.000000 -57.617188 -23.378906 -21.308594 -51.509865 -1.727655 -1.831871 -14.723504 51.011971 -13.926268 -2.000000 2.000000 0.000000 51.093750 -14.980470 -26.386719 49.236713 1.352391 -2.274768 15.251191 -52.154472 -17.234579 1.953074 9.741335 -6.604291 7.222670 -5.661447 -1.084700 9.134575 16.650352 -8.510948 15.066356 -1.983055 -11.153939 14.508295 5.649716 1.606284 -0.822145 -8.090775 4.176311 
-1.295384 52.880772 2.049139 -7.255858 -6.630859 -37.510895 32.444481 -12.362351 -4.757805 -5.390625 2.255860 17.002338 51.553619 8.070152 2.616707 -30.000000 3.027344 -7.197267 2.000000 -2.000000 0.000000 -56.904297 -26.054688 -21.621092 -52.036915 -1.746584 -1.820985 -14.745499 48.951065 -14.670015 -2.000000 2.000000 0.000000 50.683594 -16.044922 -27.070311 49.763775 1.361573 -2.264456 14.768447 -51.432823 -16.885061 1.220985 9.790400 -6.270711 8.088972 -5.307935 -1.512542 8.437123 16.598198 -8.700403 15.795605 -1.953127 -11.320162 12.743570 5.706553 1.251431 -1.690448 -7.644520 3.946074 
-1.048998 52.845318 2.301034 -6.738281 -6.474609 -37.587891 33.065811 -12.443292 -4.235468 -5.390625 2.255860 17.002338 51.553619 8.070152 2.616707 -30.429688 3.906250 -8.671875 2.000000 -2.000000 0.000000 -56.425781 -29.033205 -22.202005 -52.572220 -1.566543 -1.753288 -14.684656 47.445625 -15.262882 -2.000000 2.000000 0.000000 50.097656 -16.181641 -28.076172 50.268391 1.540560 -2.146480 14.387872 -50.801098 -16.848095 0.654607 9.375691 -6.135797 8.450633 -5.259535 -1.715734 8.032907 16.732782 -8.942324 16.545631 -1.904591 -11.689500 10.988863 5.757088 1.237338 -2.001939 -7.607410 4.103236 
-0.872078 52.854156 2.593683 -6.191407 -6.318359 -37.646484 33.533642 -12.451386 -3.852574 -5.556641 2.744141 16.865232 51.553619 8.070152 2.616707 -30.341801 4.716796 -10.097657 2.000000 -2.000000 0.000000 -55.839848 -30.703127 -22.939453 -52.928711 -1.616360 -1.936170 -14.575574 46.154320 -15.185001 -2.000000 2.000000 0.000000 49.599609 -15.986327 -28.525389 50.818180 1.370755 -2.254143 14.163950 -50.064690 -16.699945 0.147199 9.649593 -6.547520 8.453178 -5.817366 -1.220470 7.936963 16.626747 -9.168690 16.967911 -2.031415 -11.885182 9.221368 5.796538 1.044298 -2.038393 -6.849047 4.141508 
